<?xml version="1.0" encoding="UTF-8" standalone="no"?><svg xmlns="http://www.w3.org/2000/svg" xmlns:xlink="http://www.w3.org/1999/xlink" height="705" version="1.1" width="996"><defs/><g><g transform="translate(-2374,-1430) scale(1,1)"><g><path fill="none" stroke="none"/><text fill="#000000" font-family="Arial" font-size="13px" font-style="normal" font-weight="normal" stroke="none" text-decoration="none" x="2741" y="2106">Redis Streams (localhost:6379)</text></g></g><g transform="translate(-2374,-1430) scale(1,1)"><rect fill="#ffffff" height="45" stroke="none" width="111.498046875" x="2720" y="1440"/></g><g transform="translate(-2374,-1430) scale(1,1)"><path d="M 2720 1440 L 2831.498046875 1440 L 2831.498046875 1485 L 2720 1485 L 2720 1440 Z Z" fill="none" stroke="#000000" stroke-miterlimit="10"/></g><g transform="translate(-2374,-1430) scale(1,1)"><g><path fill="none" stroke="none"/><text fill="#000000" font-family="Arial" font-size="13px" font-style="normal" font-weight="normal" stroke="none" text-decoration="none" x="2747.568603515625" y="1462.5">Front-end</text><text fill="#000000" font-family="Arial" font-size="13px" font-style="normal" font-weight="normal" stroke="none" text-decoration="none" x="2729.5" y="1475.5">(localhost:3000)</text></g></g><g transform="translate(-2374,-1430) scale(1,1)"><rect fill="#C0C0C0" height="64" opacity="0.2" stroke="none" width="120" x="2911" y="1559"/></g><g transform="translate(-2374,-1430) scale(1,1)"><rect fill="#ffffff" height="64" stroke="none" width="120" x="2904" y="1552"/></g><g transform="translate(-2374,-1430) scale(1,1)"><path d="M 2904 1552 L 3024 1552 L 3024 1616 L 2904 1616 L 2904 1552 Z Z" fill="none" stroke="#000000" stroke-miterlimit="10"/></g><g transform="translate(-2374,-1430) scale(1,1)"><g><path fill="none" stroke="none"/><text fill="#000000" font-family="Arial" font-size="13px" font-style="normal" font-weight="normal" stroke="none" text-decoration="none" x="2964" y="1569.5"/></g></g><g transform="translate(-2374,-1430) scale(1,1)"><g><path fill="none" stroke="none"/><text fill="#000000" font-family="Arial" font-size="13px" font-style="normal" font-weight="normal" stroke="none" text-decoration="none" x="2964" y="1569.5"/></g></g><g transform="translate(-2374,-1430) scale(1,1)"><g><path fill="none" stroke="none"/><text fill="#000000" font-family="Arial" font-size="13px" font-style="normal" font-weight="normal" stroke="none" text-decoration="none" x="2964" y="1569.5"/></g></g><g transform="translate(-2374,-1430) scale(1,1)"><g><path fill="none" stroke="none"/><text fill="#000000" font-family="Arial" font-size="13px" font-style="normal" font-weight="normal" stroke="none" text-decoration="none" x="2938.34912109375" y="1574.5">Payment</text><text fill="#000000" font-family="Arial" font-size="13px" font-style="normal" font-weight="normal" stroke="none" text-decoration="none" x="2927.523193359375" y="1587.5">Microservice</text><text fill="#000000" font-family="Arial" font-size="13px" font-style="normal" font-weight="normal" stroke="none" text-decoration="none" x="2917.7509765625" y="1600.5">(localhost:8001)</text></g></g><g transform="translate(-2374,-1430) scale(1,1)"><g><path fill="none" stroke="none"/><text fill="#000000" font-family="Arial" font-size="13px" font-style="normal" font-weight="normal" stroke="none" text-decoration="none" x="3239.5" y="1988.5"/></g></g><g transform="translate(-2374,-1430) scale(1,1)"><g><path fill="none" stroke="none"/><text fill="#000000" font-family="Arial" font-size="11px" font-style="normal" font-weight="normal" stroke="none" text-decoration="none" x="2685" y="1568">REST API call : Fetches product info</text></g></g><g transform="translate(-2374,-1430) scale(1,1)"><rect fill="#ffffff" height="400" stroke="none" width="976" x="2384" y="1672"/></g><g transform="translate(-2374,-1430) scale(1,1)"><path d="M 2384 1672 L 3360 1672 L 3360 2072 L 2384 2072 L 2384 1672 Z Z" fill="none" stroke="#000000" stroke-miterlimit="10"/></g><g transform="translate(-2374,-1430) scale(1,1)"><rect fill="#ffffff" height="30" stroke="none" width="184" x="2880" y="1848"/></g><g transform="translate(-2374,-1430) scale(1,1)"><path d="M 2880 1848 L 3064 1848 L 3064 1878 L 2880 1878 L 2880 1848 Z Z" fill="none" stroke="#000000" stroke-miterlimit="10"/></g><g transform="translate(-2374,-1430) scale(1,1)"><path d="M 2885 1848 L 2885 1878" fill="none" stroke="#000000" stroke-miterlimit="10"/></g><g transform="translate(-2374,-1430) scale(1,1)"><path d="M 3059 1848 L 3059 1878" fill="none" stroke="#000000" stroke-miterlimit="10"/></g><g transform="translate(-2374,-1430) scale(1,1)"><g><path fill="none" stroke="none"/><text fill="#000000" font-family="Arial" font-size="11px" font-style="normal" font-weight="normal" stroke="none" text-decoration="none" x="2895.955810546875" y="1868.5">ORDER_COMPLETED_EVENT</text></g></g><g transform="translate(-2374,-1430) scale(1,1)"><rect fill="#ffffff" height="30" stroke="none" width="185.7744140625" x="2472" y="1976"/></g><g transform="translate(-2374,-1430) scale(1,1)"><path d="M 2472 1976 L 2657.7744140625 1976 L 2657.7744140625 2006 L 2472 2006 L 2472 1976 Z Z" fill="none" stroke="#000000" stroke-miterlimit="10"/></g><g transform="translate(-2374,-1430) scale(1,1)"><path d="M 2477 1976 L 2477 2006" fill="none" stroke="#000000" stroke-miterlimit="10"/></g><g transform="translate(-2374,-1430) scale(1,1)"><path d="M 2652.7744140625 1976 L 2652.7744140625 2006" fill="none" stroke="#000000" stroke-miterlimit="10"/></g><g transform="translate(-2374,-1430) scale(1,1)"><g><path fill="none" stroke="none"/><text fill="#000000" font-family="Arial" font-size="11px" font-style="normal" font-weight="normal" stroke="none" text-decoration="none" x="2490.0595703125" y="1996.5">ORDER_CANCELLED_EVENT</text></g></g><g transform="translate(-2374,-1430) scale(1,1)"><rect fill="#ffffff" height="32" stroke="none" width="177.91357421875" x="2920" y="1968"/></g><g transform="translate(-2374,-1430) scale(1,1)"><path d="M 2920 1968 L 3097.91357421875 1968 L 3097.91357421875 2000 L 2920 2000 L 2920 1968 Z Z" fill="none" stroke="#000000" stroke-miterlimit="10"/></g><g transform="translate(-2374,-1430) scale(1,1)"><path d="M 2925 1968 L 2925 2000" fill="none" stroke="#000000" stroke-miterlimit="10"/></g><g transform="translate(-2374,-1430) scale(1,1)"><path d="M 3092.91357421875 1968 L 3092.91357421875 2000" fill="none" stroke="#000000" stroke-miterlimit="10"/></g><g transform="translate(-2374,-1430) scale(1,1)"><g><path fill="none" stroke="none"/><text fill="#000000" font-family="Arial" font-size="11px" font-style="normal" font-weight="normal" stroke="none" text-decoration="none" x="2944.22412109375" y="1988.5">ORDER_REFUND_EVENT</text></g></g><g transform="translate(-2374,-1430) scale(1,1)"><path d="M 2440 1864 L 2572 1816 L 2704 1864 L 2572 1912 L 2440 1864" fill="#ffffff" stroke="none"/></g><g transform="translate(-2374,-1430) scale(1,1)"><path d="M 2440 1864 L 2572 1816 L 2704 1864 L 2572 1912 L 2440 1864 L 2440 1864" fill="none" stroke="#000000" stroke-miterlimit="10"/></g><g transform="translate(-2374,-1430) scale(1,1)"><g><path fill="none" stroke="none"/><text fill="#000000" font-family="Arial" font-size="10px" font-style="normal" font-weight="normal" stroke="none" text-decoration="none" x="2518.6552734375" y="1864">ORDER_QUANTITY &lt;=</text><text fill="#000000" font-family="Arial" font-size="10px" font-style="normal" font-weight="normal" stroke="none" text-decoration="none" x="2519.21923828125" y="1874">PRODUCT_QUANTITY</text></g></g><g transform="translate(-2374,-1430) scale(1,1)"><path d="M 2560 1551 L 2560 1472 M 2560 1472 A 8 8 0 0 1 2568 1464 L 2720 1464" fill="none" stroke="#000000" stroke-miterlimit="10"/></g><g transform="translate(-2374,-1430) scale(1,1)"><path d="M 2709.837325142376 1468.2095177560159 L 2720 1464 L 2709.837325142376 1459.7904822439841" fill="#000000" stroke="none"/></g><g transform="translate(-2374,-1430) scale(1,1)"><path d="M 2709.837325142376 1468.2095177560159 L 2720 1464 L 2709.837325142376 1459.7904822439841 L 2709.837325142376 1468.2095177560159" fill="none" stroke="#000000" stroke-miterlimit="10"/></g><g transform="translate(-2374,-1430) scale(1,1)"><path d="M 2904 1576 L 2632 1579" fill="none" stroke="#000000" stroke-miterlimit="10"/></g><g transform="translate(-2374,-1430) scale(1,1)"><path d="M 2642.1156310989118 1574.6786567515726 L 2632 1579 L 2642.2084824608196 1583.0971802312245" fill="#000000" stroke="none"/></g><g transform="translate(-2374,-1430) scale(1,1)"><path d="M 2642.1156310989118 1574.6786567515726 L 2632 1579 L 2642.2084824608196 1583.0971802312245 L 2642.1156310989118 1574.6786567515726" fill="none" stroke="#000000" stroke-miterlimit="10"/></g><g transform="translate(-2374,-1430) scale(1,1)"><path d="M 2968 1552 L 2968 1463 L 2832 1463" fill="none" stroke="#000000" stroke-miterlimit="10"/></g><g transform="translate(-2374,-1430) scale(1,1)"><path d="M 2842.162674857624 1458.7904822439841 L 2832 1463 L 2842.162674857624 1467.2095177560159" fill="#000000" stroke="none"/></g><g transform="translate(-2374,-1430) scale(1,1)"><path d="M 2842.162674857624 1458.7904822439841 L 2832 1463 L 2842.162674857624 1467.2095177560159 L 2842.162674857624 1458.7904822439841" fill="none" stroke="#000000" stroke-miterlimit="10"/></g><g transform="translate(-2374,-1430) scale(1,1)"><path d="M 2968 1616 L 2968 1712" fill="none" stroke="#000000" stroke-miterlimit="10"/></g><g transform="translate(-2374,-1430) scale(1,1)"><path d="M 2963.790482243984 1701.837325142376 L 2968 1712 L 2972.209517756016 1701.837325142376" fill="#000000" stroke="none"/></g><g transform="translate(-2374,-1430) scale(1,1)"><path d="M 2963.790482243984 1701.837325142376 L 2968 1712 L 2972.209517756016 1701.837325142376 L 2963.790482243984 1701.837325142376" fill="none" stroke="#000000" stroke-miterlimit="10"/></g><g transform="translate(-2374,-1430) scale(1,1)"><path d="M 2888 1760 L 2968 1712 L 3048 1760 L 2968 1808 L 2888 1760" fill="#ffffff" stroke="none"/></g><g transform="translate(-2374,-1430) scale(1,1)"><path d="M 2888 1760 L 2968 1712 L 3048 1760 L 2968 1808 L 2888 1760 L 2888 1760" fill="none" stroke="#000000" stroke-miterlimit="10"/></g><g transform="translate(-2374,-1430) scale(1,1)"><g><path fill="none" stroke="none"/><text fill="#000000" font-family="Arial" font-size="13px" font-style="normal" font-weight="normal" stroke="none" text-decoration="none" x="2934.760498046875" y="1766.5">Place order</text></g></g><g transform="translate(-2374,-1430) scale(1,1)"><path d="M 2880 1864 L 2704 1864" fill="none" stroke="#000000" stroke-miterlimit="10"/></g><g transform="translate(-2374,-1430) scale(1,1)"><path d="M 2714.162674857624 1859.7904822439841 L 2704 1864 L 2714.162674857624 1868.2095177560159" fill="#000000" stroke="none"/></g><g transform="translate(-2374,-1430) scale(1,1)"><path d="M 2714.162674857624 1859.7904822439841 L 2704 1864 L 2714.162674857624 1868.2095177560159 L 2714.162674857624 1859.7904822439841" fill="none" stroke="#000000" stroke-miterlimit="10"/></g><g transform="translate(-2374,-1430) scale(1,1)"><path d="M 2568 1816 L 2568 1615" fill="none" stroke="#000000" stroke-miterlimit="10"/></g><g transform="translate(-2374,-1430) scale(1,1)"><path d="M 2572.209517756016 1625.162674857624 L 2568 1615 L 2563.790482243984 1625.162674857624" fill="#000000" stroke="none"/></g><g transform="translate(-2374,-1430) scale(1,1)"><path d="M 2572.209517756016 1625.162674857624 L 2568 1615 L 2563.790482243984 1625.162674857624 L 2572.209517756016 1625.162674857624" fill="none" stroke="#000000" stroke-miterlimit="10"/></g><g transform="translate(-2374,-1430) scale(1,1)"><g><path fill="none" stroke="none"/><text fill="#000000" font-family="Arial" font-size="13px" font-style="normal" font-weight="normal" stroke="none" text-decoration="none" x="2423.5" y="1762.5">True: Deletes the product quantity from inventory as per order</text></g></g><g transform="translate(-2374,-1430) scale(1,1)"><path d="M 2569 1912 L 2569 1976" fill="none" stroke="#000000" stroke-miterlimit="10"/></g><g transform="translate(-2374,-1430) scale(1,1)"><path d="M 2564.790482243984 1965.837325142376 L 2569 1976 L 2573.209517756016 1965.837325142376" fill="#000000" stroke="none"/></g><g transform="translate(-2374,-1430) scale(1,1)"><path d="M 2564.790482243984 1965.837325142376 L 2569 1976 L 2573.209517756016 1965.837325142376 L 2564.790482243984 1965.837325142376" fill="none" stroke="#000000" stroke-miterlimit="10"/></g><g transform="translate(-2374,-1430) scale(1,1)"><g><path fill="none" stroke="none"/><text fill="#000000" font-family="Arial" font-size="13px" font-style="normal" font-weight="normal" stroke="none" text-decoration="none" x="2583.5" y="1949.5">False</text></g></g><g transform="translate(-2374,-1430) scale(1,1)"><path d="M 2970 1808 L 2970 1848" fill="none" stroke="#000000" stroke-miterlimit="10"/></g><g transform="translate(-2374,-1430) scale(1,1)"><path d="M 2965.790482243984 1837.837325142376 L 2970 1848 L 2974.209517756016 1837.837325142376" fill="#000000" stroke="none"/></g><g transform="translate(-2374,-1430) scale(1,1)"><path d="M 2965.790482243984 1837.837325142376 L 2970 1848 L 2974.209517756016 1837.837325142376 L 2965.790482243984 1837.837325142376" fill="none" stroke="#000000" stroke-miterlimit="10"/></g><g transform="translate(-2374,-1430) scale(1,1)"><path d="M 3048 1760 L 3184 1760 L 3184 1968 L 3098 1968" fill="none" stroke="#000000" stroke-miterlimit="10"/></g><g transform="translate(-2374,-1430) scale(1,1)"><path d="M 3108.162674857624 1963.7904822439841 L 3098 1968 L 3108.162674857624 1972.2095177560159" fill="#000000" stroke="none"/></g><g transform="translate(-2374,-1430) scale(1,1)"><path d="M 3108.162674857624 1963.7904822439841 L 3098 1968 L 3108.162674857624 1972.2095177560159 L 3108.162674857624 1963.7904822439841" fill="none" stroke="#000000" stroke-miterlimit="10"/></g><g transform="translate(-2374,-1430) scale(1,1)"><g><path fill="none" stroke="none"/><text fill="#000000" font-family="Arial" font-size="13px" font-style="normal" font-weight="normal" stroke="none" text-decoration="none" x="3126.5" y="1855.5">Failure in order complete</text></g></g><g transform="translate(-2374,-1430) scale(1,1)"><g><path fill="none" stroke="none"/><text fill="#000000" font-family="Arial" font-size="13px" font-style="normal" font-weight="normal" stroke="none" text-decoration="none" x="3126.5" y="1855.5">Failure in order complete</text></g></g><g transform="translate(-2374,-1430) scale(1,1)"><g><path fill="none" stroke="none"/><text fill="#000000" font-family="Arial" font-size="13px" font-style="normal" font-weight="normal" stroke="none" text-decoration="none" x="2423.5" y="1762.5">True: Deletes the product quantity from inventory as per order</text></g></g><g transform="translate(-2374,-1430) scale(1,1)"><rect fill="#ffffff" height="64" stroke="none" width="128" x="2504" y="1551"/></g><g transform="translate(-2374,-1430) scale(1,1)"><path d="M 2504 1551 L 2632 1551 L 2632 1615 L 2504 1615 L 2504 1551 Z Z" fill="none" stroke="#000000" stroke-miterlimit="10"/></g><g transform="translate(-2374,-1430) scale(1,1)"><g><path fill="none" stroke="none"/><text fill="#000000" font-family="Arial" font-size="13px" font-style="normal" font-weight="normal" stroke="none" text-decoration="none" x="2541.263671875" y="1573.5">Inventory</text><text fill="#000000" font-family="Arial" font-size="13px" font-style="normal" font-weight="normal" stroke="none" text-decoration="none" x="2531.523193359375" y="1586.5">Microservice</text><text fill="#000000" font-family="Arial" font-size="13px" font-style="normal" font-weight="normal" stroke="none" text-decoration="none" x="2521.7509765625" y="1599.5">(localhost:8000)</text></g></g></g></svg>